<?xml version="1.0" standalone="no"?>
<!DOCTYPE svg PUBLIC "-//W3C//DTD SVG 20010904//EN"
 "http://www.w3.org/TR/2001/REC-SVG-20010904/DTD/svg10.dtd">
<svg version="1.0" xmlns="http://www.w3.org/2000/svg"
 width="512.000000pt" height="512.000000pt" viewBox="0 0 512.000000 512.000000"
 preserveAspectRatio="xMidYMid meet">

<g transform="translate(0.000000,512.000000) scale(0.100000,-0.100000)"
fill="#000000" stroke="none">
<path d="M3708 2928 l-3 -2013 -290 0 -290 0 -5 1688 -5 1688 -331 -1 c-359
-1 -478 -11 -662 -56 -216 -53 -467 -173 -652 -312 -317 -239 -581 -600 -704
-965 -52 -154 -102 -390 -116 -547 -8 -95 -10 -448 -8 -1180 l3 -1045 1050 0
c942 0 1061 2 1155 17 579 94 1068 432 1380 952 99 166 206 440 243 626 9 41
21 101 27 134 22 110 28 363 24 1131 -3 424 -4 1023 -4 1333 l0 562 -405 0
-405 0 -2 -2012z m-883 -783 l0 -1230 -292 -3 -293 -2 0 1228 c0 676 3 1232 7
1235 4 4 135 6 292 5 l286 -3 0 -1230z m190 429 c24 -24 18 -222 -7 -238 -40
-25 -82 36 -96 138 -9 66 -8 71 14 93 27 27 66 30 89 7z m-1097 -991 l-3 -668
-292 -3 -293 -2 0 670 0 670 295 0 295 0 -2 -667z"/>
</g>
</svg>
